<svg width="40" height="40" viewBox="0 0 40 40" fill="none" xmlns="http://www.w3.org/2000/svg">
<path d="M8.22002 8.22C1.71377 14.7262 1.71377 25.2737 8.22002 31.7812C14.7263 38.2887 25.2738 38.2875 31.7813 31.7812C38.2888 25.2737 38.2888 14.7275 31.7813 8.22C25.2738 1.7125 14.7275 1.71375 8.22002 8.22ZM30.8375 30.8375C24.8613 36.8137 15.1375 36.8137 9.16127 30.8375C3.18502 24.8612 3.18502 15.1375 9.16127 9.16125C15.1375 3.185 24.8613 3.185 30.8375 9.16125C36.8138 15.1375 36.8125 24.8612 30.8375 30.8375Z" fill="black"/>
<path d="M13.4025 12.4614L12.46 13.4039L19.0575 20.0014L12.4912 26.5677L13.4337 27.5102L20 20.9439L26.5662 27.5102L27.5087 26.5677L20.9425 20.0014L27.54 13.4039L26.5975 12.4614L20 19.0589L13.4025 12.4614Z" fill="black"/>
</svg>
